{"asset":{"version":"2.0","generator":"cubecore piece templates"},"scene":0,"scenes":[{"nodes":[0,1,2]}],"nodes":[{"mesh":0,"matrix":[1,0,0,0,0,1,0,0,0,0,1,0,0,0,0,1]},{"mesh":1,"matrix":[1,0,0,0,0,0,-1,0,0,1,0,0,0,0.498,0,1]},{"mesh":2,"matrix":[1,0,0,0,0,0,-1,0,0,1,0,0,0,0.498,0,1]}],"meshes":[{"primitives":[{"attributes":{"POSITION":0,"NORMAL":1},"indices":2,"material":0}]},{"primitives":[{"attributes":{"POSITION":3,"NORMAL":4},"indices":5,"material":1}]},{"primitives":[{"attributes":{"POSITION":6,"NORMAL":7},"indices":8,"material":0}]}],"materials":[{"name":"body","pbrMetallicRoughness":{"baseColorFactor":[0.6239603916750761,0.6514056374198242,0.6938717612919899,1],"metallicFactor":0,"roughnessFactor":0.85}},{"name":"sticker-U","pbrMetallicRoughness":{"baseColorFactor":[0.8962693533742664,0.8879231178819663,0.8549926081242338,1],"metallicFactor":0,"roughnessFactor":0.55}}],"accessors":[{"bufferView":0,"componentType":5126,"count":1764,"type":"VEC3","min":[-0.29760000109672546,-0.29760000109672546,-0.29760000109672546],"max":[0.29760000109672546,0.29760000109672546,0.29760000109672546]},{"bufferView":1,"componentType":5126,"count":1764,"type":"VEC3"},{"bufferView":2,"componentType":5125,"count":1764,"type":"SCALAR"},{"bufferView":3,"componentType":5126,"count":252,"type":"VEC3","min":[-0.4850879907608032,-0.4850879907608032,-0.02199999988079071],"max":[0.4850879907608032,0.4850879907608032,0.03999999910593033]},{"bufferView":4,"componentType":5126,"count":252,"type":"VEC3"},{"bufferView":5,"componentType":5125,"count":1182,"type":"SCALAR"},{"bufferView":6,"componentType":5126,"count":72,"type":"VEC3","min":[-0.4850879907608032,-0.4850879907608032,-0.30000001192092896],"max":[0.4850879907608032,0.4850879907608032,-0.02199999988079071]},{"bufferView":7,"componentType":5126,"count":72,"type":"VEC3"},{"bufferView":8,"componentType":5125,"count":216,"type":"SCALAR"}],"bufferViews":[{"buffer":0,"byteOffset":0,"byteLength":21168,"target":34962},{"buffer":0,"byteOffset":21168,"byteLength":21168,"target":34962},{"buffer":0,"byteOffset":42336,"byteLength":7056,"target":34963},{"buffer":0,"byteOffset":49392,"byteLength":3024,"target":34962},{"buffer":0,"byteOffset":52416,"byteLength":3024,"target":34962},{"buffer":0,"byteOffset":55440,"byteLength":4728,"target":34963},{"buffer":0,"byteOffset":60168,"byteLength":864,"target":34962},{"buffer":0,"byteOffset":61032,"byteLength":864,"target":34962},{"buffer":0,"byteOffset":61896,"byteLength":864,"target":34963}],"buffers":[{"byteLength":62760,"uri":"data:application/octet-stream;base64,"}]}