{"asset":{"version":"2.0","generator":"cubecore piece templates"},"scene":0,"scenes":[{"nodes":[0,1,2,3,4,5,6]}],"nodes":[{"mesh":0,"matrix":[1,0,0,0,0,1,0,0,0,0,1,0,0,0,0,1]},{"mesh":1,"matrix":[1,0,0,0,0,0,-1,0,0,1,0,0,0,0.498,0,1]},{"mesh":2,"matrix":[1,0,0,0,0,0,-1,0,0,1,0,0,0,0.498,0,1]},{"mesh":3,"matrix":[1,0,0,0,0,1,0,0,0,0,1,0,0,0,0.498,1]},{"mesh":4,"matrix":[1,0,0,0,0,1,0,0,0,0,1,0,0,0,0.498,1]},{"mesh":5,"matrix":[0,0,-1,0,0,1,0,0,1,0,0,0,0.498,0,0,1]},{"mesh":6,"matrix":[0,0,-1,0,0,1,0,0,1,0,0,0,0.498,0,0,1]}],"meshes":[{"primitives":[{"attributes":{"POSITION":0,"NORMAL":1},"indices":2,"material":0}]},{"primitives":[{"attributes":{"POSITION":3,"NORMAL":4},"indices":5,"material":1}]},{"primitives":[{"attributes":{"POSITION":6,"NORMAL":7},"indices":8,"material":0}]},{"primitives":[{"attributes":{"POSITION":9,"NORMAL":10},"indices":11,"material":2}]},{"primitives":[{"attributes":{"POSITION":12,"NORMAL":13},"indices":14,"material":0}]},{"primitives":[{"attributes":{"POSITION":15,"NORMAL":16},"indices":17,"material":3}]},{"primitives":[{"attributes":{"POSITION":18,"NORMAL":19},"indices":20,"material":0}]}],"materials":[{"name":"body","pbrMetallicRoughness":{"baseColorFactor":[0.6239603916750761,0.6514056374198242,0.6938717612919899,1],"metallicFactor":0,"roughnessFactor":0.85}},{"name":"sticker-U","pbrMetallicRoughness":{"baseColorFactor":[0.8962693533742664,0.8879231178819663,0.8549926081242338,1],"metallicFactor":0,"roughnessFactor":0.55}},{"name":"sticker-F","pbrMetallicRoughness":{"baseColorFactor":[0.017641954488384078,0.5840784178911641,0.10702310297826761,1],"metallicFactor":0,"roughnessFactor":0.55}},{"name":"sticker-R","pbrMetallicRoughness":{"baseColorFactor":[0.8879231178819663,0.03189603307301153,0.046665086336880095,1],"metallicFactor":0,"roughnessFactor":0.55}}],"accessors":[{"bufferView":0,"componentType":5126,"count":1764,"type":"VEC3","min":[-0.29760000109672546,-0.29760000109672546,-0.29760000109672546],"max":[0.29760000109672546,0.29760000109672546,0.29760000109672546]},{"bufferView":1,"componentType":5126,"count":1764,"type":"VEC3"},{"bufferView":2,"componentType":5125,"count":1764,"type":"SCALAR"},{"bufferView":3,"componentType":5126,"count":196,"type":"VEC3","min":[-0.4850879907608032,-0.5233553647994995,-0.02199999988079071],"max":[0.5233553647994995,0.4850879907608032,0.03999999910593033]},{"bufferView":4,"componentType":5126,"count":196,"type":"VEC3"},{"bufferView":5,"componentType":5125,"count":918,"type":"SCALAR"},{"bufferView":6,"componentType":5126,"count":56,"type":"VEC3","min":[-0.4850879907608032,-0.47600001096725464,-0.30000001192092896],"max":[0.47600001096725464,0.4850879907608032,-0.02199999988079071]},{"bufferView":7,"componentType":5126,"count":56,"type":"VEC3"},{"bufferView":8,"componentType":5125,"count":168,"type":"SCALAR"},{"bufferView":9,"componentType":5126,"count":196,"type":"VEC3","min":[-0.4850879907608032,-0.4850879907608032,-0.02199999988079071],"max":[0.5233553647994995,0.5233553647994995,0.03999999910593033]},{"bufferView":10,"componentType":5126,"count":196,"type":"VEC3"},{"bufferView":11,"componentType":5125,"count":918,"type":"SCALAR"},{"bufferView":12,"componentType":5126,"count":56,"type":"VEC3","min":[-0.4850879907608032,-0.4850879907608032,-0.30000001192092896],"max":[0.47600001096725464,0.47600001096725464,-0.02199999988079071]},{"bufferView":13,"componentType":5126,"count":56,"type":"VEC3"},{"bufferView":14,"componentType":5125,"count":168,"type":"SCALAR"},{"bufferView":15,"componentType":5126,"count":196,"type":"VEC3","min":[-0.5233553647994995,-0.4850879907608032,-0.02199999988079071],"max":[0.4850879907608032,0.5233553647994995,0.03999999910593033]},{"bufferView":16,"componentType":5126,"count":196,"type":"VEC3"},{"bufferView":17,"componentType":5125,"count":918,"type":"SCALAR"},{"bufferView":18,"componentType":5126,"count":56,"type":"VEC3","min":[-0.47600001096725464,-0.4850879907608032,-0.30000001192092896],"max":[0.4850879907608032,0.47600001096725464,-0.02199999988079071]},{"bufferView":19,"componentType":5126,"count":56,"type":"VEC3"},{"bufferView":20,"componentType":5125,"count":168,"type":"SCALAR"}],"bufferViews":[{"buffer":0,"byteOffset":0,"byteLength":21168,"target":34962},{"buffer":0,"byteOffset":21168,"byteLength":21168,"target":34962},{"buffer":0,"byteOffset":42336,"byteLength":7056,"target":34963},{"buffer":0,"byteOffset":49392,"byteLength":2352,"target":34962},{"buffer":0,"byteOffset":51744,"byteLength":2352,"target":34962},{"buffer":0,"byteOffset":54096,"byteLength":3672,"target":34963},{"buffer":0,"byteOffset":57768,"byteLength":672,"target":34962},{"buffer":0,"byteOffset":58440,"byteLength":672,"target":34962},{"buffer":0,"byteOffset":59112,"byteLength":672,"target":34963},{"buffer":0,"byteOffset":59784,"byteLength":2352,"target":34962},{"buffer":0,"byteOffset":62136,"byteLength":2352,"target":34962},{"buffer":0,"byteOffset":64488,"byteLength":3672,"target":34963},{"buffer":0,"byteOffset":68160,"byteLength":672,"target":34962},{"buffer":0,"byteOffset":68832,"byteLength":672,"target":34962},{"buffer":0,"byteOffset":69504,"byteLength":672,"target":34963},{"buffer":0,"byteOffset":70176,"byteLength":2352,"target":34962},{"buffer":0,"byteOffset":72528,"byteLength":2352,"target":34962},{"buffer":0,"byteOffset":74880,"byteLength":3672,"target":34963},{"buffer":0,"byteOffset":78552,"byteLength":672,"target":34962},{"buffer":0,"byteOffset":79224,"byteLength":672,"target":34962},{"buffer":0,"byteOffset":79896,"byteLength":672,"target":34963}],"buffers":[{"byteLength":80568,"uri":"data:application/octet-stream;base64,"}]}